<svg id="Layer_1" data-name="Layer 1" xmlns="http://www.w3.org/2000/svg" xmlns:xlink="http://www.w3.org/1999/xlink" viewBox="0 0 2540 1080"><defs><style>.cls-1{fill:#fff;}.cls-2{fill:url(#linear-gradient);}.cls-3{fill:url(#radial-gradient);}.cls-4{fill:url(#radial-gradient-2);}.cls-5{fill:url(#radial-gradient-3);}.cls-6{fill:url(#radial-gradient-7);}.cls-7{fill:url(#linear-gradient-2);}.cls-8{fill:url(#linear-gradient-3);}.cls-9{fill:url(#linear-gradient-4);}.cls-10{fill:url(#radial-gradient-8);}.cls-11{fill:url(#linear-gradient-5);}.cls-12{fill:url(#linear-gradient-6);}.cls-13{fill:url(#linear-gradient-7);}.cls-14{fill:url(#linear-gradient-8);}.cls-15{fill:url(#linear-gradient-9);}.cls-16{fill:url(#linear-gradient-10);}.cls-17{fill:url(#linear-gradient-11);}.cls-18{fill:url(#linear-gradient-12);}.cls-19{fill:url(#linear-gradient-13);}.cls-20{fill:url(#linear-gradient-14);}.cls-21{fill:url(#linear-gradient-15);}.cls-22{fill:url(#linear-gradient-16);}.cls-23{fill:url(#linear-gradient-17);}.cls-24{fill:url(#linear-gradient-18);}.cls-25{fill:url(#linear-gradient-19);}.cls-26{fill:url(#linear-gradient-20);}.cls-27{fill:url(#linear-gradient-21);}.cls-28{fill:url(#linear-gradient-22);}.cls-29{fill:url(#linear-gradient-23);}.cls-30{fill:url(#linear-gradient-24);}.cls-31{fill:url(#linear-gradient-25);}.cls-32{fill:url(#linear-gradient-26);}.cls-33{fill:url(#linear-gradient-27);}.cls-34{fill:url(#linear-gradient-28);}.cls-35{fill:url(#linear-gradient-29);}.cls-36{fill:url(#linear-gradient-30);}.cls-37{fill:url(#linear-gradient-31);}.cls-38{fill:url(#linear-gradient-32);}.cls-39{fill:url(#linear-gradient-33);}.cls-40{fill:url(#linear-gradient-34);}.cls-41{fill:url(#linear-gradient-35);}.cls-42{font-size:76px;fill:#6f00ff;font-family:Pribambas-Regular, Pribambas;letter-spacing:0.23em;}</style><linearGradient id="linear-gradient" x1="1903.62" y1="747.88" x2="356.39" y2="746.35" gradientUnits="userSpaceOnUse"><stop offset="0" stop-color="#ffcb4a"/><stop offset="0.72" stop-color="#dd55cb"/><stop offset="1" stop-color="#d026ff"/></linearGradient><radialGradient id="radial-gradient" cx="1161.42" cy="357.65" r="290.74" gradientUnits="userSpaceOnUse"><stop offset="0" stop-color="#d026ff"/><stop offset="0.16" stop-color="#cc2cff"/><stop offset="0.37" stop-color="#c13dff"/><stop offset="0.61" stop-color="#ae5aff"/><stop offset="0.88" stop-color="#9581ff"/><stop offset="1" stop-color="#8796ff"/></radialGradient><radialGradient id="radial-gradient-2" cx="1224.22" cy="595.1" r="118.76" xlink:href="#radial-gradient"/><radialGradient id="radial-gradient-3" cx="1377.42" cy="434.25" r="288.05" xlink:href="#radial-gradient"/><radialGradient id="radial-gradient-7" cx="1599.03" cy="491.44" r="135" xlink:href="#radial-gradient"/><linearGradient id="linear-gradient-2" x1="1715.7" y1="535.08" x2="1721.83" y2="860.87" gradientUnits="userSpaceOnUse"><stop offset="0" stop-color="#ffcb4a"/><stop offset="0.1" stop-color="#ffc84b"/><stop offset="0.18" stop-color="#ffbe4c"/><stop offset="0.25" stop-color="#ffad4f"/><stop offset="0.32" stop-color="#ff9653"/><stop offset="0.37" stop-color="#ff8157"/></linearGradient><linearGradient id="linear-gradient-3" x1="1848.85" y1="532.57" x2="1854.98" y2="858.36" xlink:href="#linear-gradient-2"/><linearGradient id="linear-gradient-4" x1="588.81" y1="506.74" x2="685.45" y2="506.74" gradientUnits="userSpaceOnUse"><stop offset="0" stop-color="#ffcb4a"/><stop offset="0.1" stop-color="#ffc54b"/><stop offset="0.23" stop-color="#ffb44e"/><stop offset="0.37" stop-color="#ff9953"/><stop offset="0.48" stop-color="#ff8157"/></linearGradient><radialGradient id="radial-gradient-8" cx="780.08" cy="523.53" r="260.73" xlink:href="#radial-gradient"/><linearGradient id="linear-gradient-5" x1="640.01" y1="446.67" x2="868.72" y2="573.63" gradientUnits="userSpaceOnUse"><stop offset="0" stop-color="#ffcb4a"/><stop offset="0.27" stop-color="#ffc84b"/><stop offset="0.49" stop-color="#ffbe4c"/><stop offset="0.69" stop-color="#ffad4f"/><stop offset="0.87" stop-color="#ff9653"/><stop offset="1" stop-color="#ff8157"/></linearGradient><linearGradient id="linear-gradient-6" x1="677.28" y1="523.17" x2="869.82" y2="523.17" gradientUnits="userSpaceOnUse"><stop offset="0" stop-color="#8796ff"/><stop offset="1" stop-color="#d026ff"/></linearGradient><linearGradient id="linear-gradient-7" x1="724.39" y1="577.65" x2="827.64" y2="472.99" gradientTransform="translate(597.98 -396.67) rotate(45)" gradientUnits="userSpaceOnUse"><stop offset="0" stop-color="#ffcb4a"/><stop offset="0.13" stop-color="#ffb44e"/><stop offset="0.31" stop-color="#ff9d52"/><stop offset="0.5" stop-color="#ff8d55"/><stop offset="0.71" stop-color="#ff8456"/><stop offset="1" stop-color="#ff8157"/></linearGradient><linearGradient id="linear-gradient-8" x1="727.16" y1="479.04" x2="825.82" y2="565.62" gradientTransform="translate(597.98 -396.67) rotate(45)" gradientUnits="userSpaceOnUse"><stop offset="0" stop-color="#ffcb4a"/><stop offset="0.04" stop-color="#ffbc4d"/><stop offset="0.13" stop-color="#ffa650"/><stop offset="0.23" stop-color="#ff9553"/><stop offset="0.35" stop-color="#ff8a55"/><stop offset="0.52" stop-color="#ff8357"/><stop offset="1" stop-color="#ff8157"/></linearGradient><linearGradient id="linear-gradient-9" x1="802.7" y1="549.83" x2="749.66" y2="492.99" gradientUnits="userSpaceOnUse"><stop offset="0" stop-color="#ffcb4a"/><stop offset="0.29" stop-color="#ffb94d"/><stop offset="0.88" stop-color="#ff8b55"/><stop offset="1" stop-color="#ff8157"/></linearGradient><linearGradient id="linear-gradient-10" x1="777.35" y1="397.38" x2="778.02" y2="419.53" xlink:href="#linear-gradient-6"/><linearGradient id="linear-gradient-11" x1="778.31" y1="647.68" x2="777.63" y2="628.22" xlink:href="#linear-gradient-6"/><linearGradient id="linear-gradient-12" x1="716.13" y1="436.52" x2="687.95" y2="451.29" xlink:href="#linear-gradient-6"/><linearGradient id="linear-gradient-13" x1="868.91" y1="616.52" x2="853.47" y2="598.4" xlink:href="#linear-gradient-6"/><linearGradient id="linear-gradient-14" x1="711.24" y1="609.44" x2="692.45" y2="596.02" xlink:href="#linear-gradient-6"/><linearGradient id="linear-gradient-15" x1="846.68" y1="445.1" x2="865.08" y2="445.1" xlink:href="#linear-gradient-6"/><linearGradient id="linear-gradient-16" x1="902.77" y1="531.48" x2="874.58" y2="515.37" xlink:href="#linear-gradient-6"/><linearGradient id="linear-gradient-17" x1="1674.1" y1="535.86" x2="1680.22" y2="861.65" xlink:href="#linear-gradient-2"/><linearGradient id="linear-gradient-18" x1="1774.78" y1="533.97" x2="1780.91" y2="859.75" xlink:href="#linear-gradient-2"/><linearGradient id="linear-gradient-19" x1="1021.47" y1="324.01" x2="1078.66" y2="776.43" gradientUnits="userSpaceOnUse"><stop offset="0" stop-color="#ffcb4a"/><stop offset="0.13" stop-color="#ffc54b"/><stop offset="0.3" stop-color="#ffb64e"/><stop offset="0.48" stop-color="#ff9c52"/><stop offset="0.63" stop-color="#ff8157"/></linearGradient><linearGradient id="linear-gradient-20" x1="1140.43" y1="484.49" x2="1248.3" y2="837" gradientUnits="userSpaceOnUse"><stop offset="0" stop-color="#ffcb4a"/><stop offset="0.09" stop-color="#ffc74b"/><stop offset="0.2" stop-color="#ffb94d"/><stop offset="0.31" stop-color="#ffa451"/><stop offset="0.42" stop-color="#ff8556"/><stop offset="0.43" stop-color="#ff8157"/></linearGradient><linearGradient id="linear-gradient-21" x1="1246" y1="445.06" x2="1286.85" y2="867.87" gradientUnits="userSpaceOnUse"><stop offset="0" stop-color="#ffcb4a"/><stop offset="0.12" stop-color="#ffc84b"/><stop offset="0.22" stop-color="#ffbe4c"/><stop offset="0.31" stop-color="#ffad4f"/><stop offset="0.39" stop-color="#ff9653"/><stop offset="0.45" stop-color="#ff8157"/></linearGradient><linearGradient id="linear-gradient-22" x1="1338.12" y1="435.96" x2="1378.98" y2="858.77" gradientUnits="userSpaceOnUse"><stop offset="0" stop-color="#ffcb4a"/><stop offset="0.12" stop-color="#ffc84b"/><stop offset="0.22" stop-color="#ffbe4c"/><stop offset="0.31" stop-color="#ffad4f"/><stop offset="0.39" stop-color="#ff9653"/><stop offset="0.45" stop-color="#ff8157"/></linearGradient><linearGradient id="linear-gradient-23" x1="1439.17" y1="426.2" x2="1480.02" y2="849.01" gradientUnits="userSpaceOnUse"><stop offset="0" stop-color="#ffcb4a"/><stop offset="0.13" stop-color="#ffc84b"/><stop offset="0.24" stop-color="#ffbe4c"/><stop offset="0.34" stop-color="#ffad4f"/><stop offset="0.43" stop-color="#ff9653"/><stop offset="0.49" stop-color="#ff8157"/></linearGradient><linearGradient id="linear-gradient-24" x1="1533.29" y1="417.11" x2="1574.14" y2="839.92" gradientUnits="userSpaceOnUse"><stop offset="0" stop-color="#ffcb4a"/><stop offset="0.14" stop-color="#ffc84b"/><stop offset="0.26" stop-color="#ffbe4c"/><stop offset="0.36" stop-color="#ffad4f"/><stop offset="0.46" stop-color="#ff9653"/><stop offset="0.52" stop-color="#ff8157"/></linearGradient><linearGradient id="linear-gradient-25" x1="1603.8" y1="460.32" x2="1755.97" y2="792.23" gradientUnits="userSpaceOnUse"><stop offset="0" stop-color="#ffcb4a"/><stop offset="0.13" stop-color="#ffc84b"/><stop offset="0.23" stop-color="#ffbe4c"/><stop offset="0.33" stop-color="#ffad4f"/><stop offset="0.42" stop-color="#ff9653"/><stop offset="0.48" stop-color="#ff8157"/></linearGradient><linearGradient id="linear-gradient-26" x1="1674.85" y1="533.26" x2="1692.22" y2="666.03" xlink:href="#linear-gradient-6"/><linearGradient id="linear-gradient-27" x1="1715.72" y1="527.92" x2="1733.08" y2="660.69" xlink:href="#linear-gradient-6"/><linearGradient id="linear-gradient-28" x1="1773.95" y1="520.31" x2="1791.31" y2="653.07" xlink:href="#linear-gradient-6"/><linearGradient id="linear-gradient-29" x1="1849.1" y1="510.48" x2="1866.46" y2="643.24" xlink:href="#linear-gradient-6"/><linearGradient id="linear-gradient-30" x1="614.99" y1="709.24" x2="1886.99" y2="709.24" xlink:href="#linear-gradient"/><linearGradient id="linear-gradient-31" x1="1458.14" y1="350.87" x2="1219.34" y2="350.87" gradientTransform="translate(132.94 -353.76) rotate(15)" xlink:href="#linear-gradient"/><linearGradient id="linear-gradient-32" x1="739.39" y1="244.93" x2="797.47" y2="244.93" gradientTransform="translate(-27.49 300.56) rotate(-20.58)" xlink:href="#linear-gradient-6"/><linearGradient id="linear-gradient-33" x1="1736.52" y1="1049.01" x2="1833.73" y2="1049.01" gradientTransform="translate(2557.23 -1371.06) rotate(75)" xlink:href="#linear-gradient-6"/><linearGradient id="linear-gradient-34" x1="1679.74" y1="868.7" x2="1719.03" y2="868.7" gradientTransform="translate(1674.61 -1392.32) rotate(60)" gradientUnits="userSpaceOnUse"><stop offset="0" stop-color="#ffcb4a"/><stop offset="0.22" stop-color="#ffc14c"/><stop offset="0.58" stop-color="#ffa750"/><stop offset="1" stop-color="#ff8157"/></linearGradient><linearGradient id="linear-gradient-35" x1="1210.14" y1="2013.6" x2="1273.7" y2="2013.6" gradientTransform="translate(2578.32 1744.61) rotate(150)" xlink:href="#linear-gradient"/></defs><path class="cls-1" d="M499.5,268.5c142.06-98.59,366.24-160.41,524-86,30.34,14.31,57.69,33.41,107,40,102.12,13.65,161.51-44.64,245-77,177.82-68.93,425.61-5,524,126,56.31,75,22.43,117,92,190,85.6,89.78,170.94,61.86,224,141,45.67,68.11,42.3,178-6,245-49.13,68.1-142.91,89.18-432,80-284.92-9-343.56-34.28-503-40-471-16.9-624,179.41-824,55-112.95-70.25-187-209.26-181-340C277.77,422.37,435.48,312.93,499.5,268.5Z"/><rect class="cls-2" x="567.99" y="735.74" width="1366" height="23" rx="10.55"/><path class="cls-3" d="M1019.94,665.88q-28.4,0-45.9-18t-17.52-44.49l-.47-24.14q-1.42-89.44-1.42-114.06,0-21.3.47-27.45,1-31.69,14.44-64.37t55.61-32.65q40.21,0,54.43,25.08t14.19,57.27q0,8.06-.47,12.54c-.32,3-.47,5.13-.47,6.39a4.37,4.37,0,0,1-1.9,4,8.74,8.74,0,0,1-4.73,1.19h-4.26a116.2,116.2,0,0,1-12.54.23q-5.45-.22-10.17-.23-7.11,0-9.47-7.58,0-1.87-.47-12.78t-4.74-26q-4.26-15.13-18.45-15.14-9.48,0-17,15.38t-7.57,35.73L1001,577.38q0,11.36,5.21,25.79t15.62,14.44q13.25,0,19.4-15.39a107.92,107.92,0,0,0,7.34-33.13q1.17-17.75.23-22-.46-5.69,5.68-5.68l30.29-1.42q9.46-.94,9.47,8.52c0,.94.07,2.6.23,5s.24,5.91.24,10.65q0,37.86-15.14,69.8T1019.94,665.88Z"/><path class="cls-4" d="M1191.93,621.13q0,8.25-4.63,17.88a43.77,43.77,0,0,1-13.75,16.37q-9.12,6.75-21.87,6.75-22.76,0-32.13-11t-11.12-23.75q-.75-4.5-.75-45.5v-38q0-24,12.25-35.12t33.75-11.13q19.24,0,28.62,13.13t9.38,33.87Zm-59-6q1.74,20,16.75,20c6.16,0,10.46-1.71,12.87-5.12s3.63-8.29,3.63-14.63V543.63q0-21-15.75-21-9.51,0-13.88,5.63t-4.37,15.62q0,16,.25,42.63T1132.93,615.13Z"/><path class="cls-5" d="M1236.24,633.74h42c2,0,3.41.37,4.25,1.12s1.25,2,1.25,3.88q0,11.5-.5,16.75a3.32,3.32,0,0,1-1,2.12,4.22,4.22,0,0,1-2,1.38q-2.51.75-41.5.75-24.51,0-26.75-.25c-1.17,0-2.29-.75-3.38-2.25a8.37,8.37,0,0,1-1.62-5q.24-24.5.37-70.25t.13-74.5a5.39,5.39,0,0,1,.87-3.5c.59-.67,1.79-1,3.63-1l13,.25a55.1,55.1,0,0,0,6.25-.25,2.85,2.85,0,0,1,2.5.5,3.88,3.88,0,0,1,.75,2.75q-.51,12.5-.5,73.5l.25,51.25a2.81,2.81,0,0,0,.75,1.87C1235.49,633.45,1235.9,633.74,1236.24,633.74Z"/><path class="cls-5" d="M1329.24,633.74h42c2,0,3.41.37,4.25,1.12s1.25,2,1.25,3.88q0,11.5-.5,16.75a3.32,3.32,0,0,1-1,2.12,4.22,4.22,0,0,1-2,1.38q-2.51.75-41.5.75-24.51,0-26.75-.25c-1.17,0-2.29-.75-3.38-2.25a8.37,8.37,0,0,1-1.62-5q.24-24.5.37-70.25t.13-74.5a5.39,5.39,0,0,1,.87-3.5c.59-.67,1.79-1,3.63-1l13,.25a55.1,55.1,0,0,0,6.25-.25,2.85,2.85,0,0,1,2.5.5,3.88,3.88,0,0,1,.75,2.75q-.51,12.5-.5,73.5l.25,51.25a2.81,2.81,0,0,0,.75,1.87C1328.49,633.45,1328.9,633.74,1329.24,633.74Z"/><path class="cls-5" d="M1467.18,529.88a37.13,37.13,0,0,1-5-.25h-14.25q-13.76,0-17.5-.25h-2c-1.67,0-2.67.29-3,.88a15.47,15.47,0,0,0-1,4.37q-.26,6.51-.25,23.5h12.5q21.49,0,24.75.75c2.16.34,3.25,2.5,3.25,6.5q0,10-1.25,14.75c-.67.84-2,1.42-3.88,1.75a27.13,27.13,0,0,1-3.87.5l-27.75.5c-2.17,0-3.25,1.09-3.25,3.25q-.51,9.51-.5,18,0,10.5.25,18.88c.16,5.58.25,8.62.25,9.12q3.75-.24,42-.25c2.5,0,4.16.29,5,.88a2.75,2.75,0,0,1,1.25,2.37l-.75,20.5a2.42,2.42,0,0,1-1.63,2.25,9.18,9.18,0,0,1-3.87.75l-67.75.25c-1.5,0-2.5-.33-3-1a5,5,0,0,1-.75-3q0-138.24.25-145.5a6.09,6.09,0,0,1,1.62-3.75,4.49,4.49,0,0,1,3.38-2h65.75q7.24,0,7.25,7.25v6.38a45.07,45.07,0,0,1-1,10.12Q1471.43,529.89,1467.18,529.88Z"/><path class="cls-5" d="M1526.74,666.24q-15,0-24.25-9.5t-9.25-23.5l-.25-12.75q-.75-47.25-.75-60.25,0-11.25.25-14.5a96.37,96.37,0,0,1,7.62-34q7.13-17.25,29.38-17.25,21.24,0,28.75,13.25t7.5,30.25c0,2.83-.09,5-.25,6.62s-.25,2.71-.25,3.38a2.31,2.31,0,0,1-1,2.12,4.62,4.62,0,0,1-2.5.63h-2.25a58.55,58.55,0,0,1-6.63.12c-1.91-.08-3.71-.12-5.37-.12q-3.75,0-5-4c0-.67-.09-2.92-.25-6.75a62.26,62.26,0,0,0-2.5-13.75q-2.25-8-9.75-8-5,0-9,8.12a42.21,42.21,0,0,0-4,18.88l-.25,74.25a40.54,40.54,0,0,0,2.75,13.62q2.74,7.64,8.25,7.63,7,0,10.25-8.13a57,57,0,0,0,3.87-17.5q.63-9.37.13-11.62-.26-3,3-3l16-.75q5-.5,5,4.5c0,.5,0,1.37.12,2.62s.13,3.13.13,5.63a85,85,0,0,1-8,36.87Q1550.23,666.24,1526.74,666.24Z"/><path class="cls-6" d="M1578.42,528.38q-1,0-1-14.5c0-1.83,0-3.12-.12-3.87s-.13-1.21-.13-1.38a4.66,4.66,0,0,1,1.88-4.5,7.47,7.47,0,0,1,4.37-1.5h77a23.37,23.37,0,0,1,5.75.5,2.17,2.17,0,0,1,1.75,2.25l-.25,20.75a2.18,2.18,0,0,1-1.87,2.25,30.81,30.81,0,0,1-6.88.5h-20.75a1.89,1.89,0,0,0-1.12.5,1.54,1.54,0,0,0-.63,1.25V651.88q0,4.75-1.62,6.13c-1.09.91-3.38,1.46-6.88,1.62q-3.75.24-13,.25c-1.83,0-3.12-.46-3.87-1.37s-1.13-2.46-1.13-4.63q0-31-.25-59-.5-58.5-.25-63.75c0-2-.83-3-2.5-3h-1.25q-6,.51-13.5.5Z"/><path class="cls-7" d="M1742.16,639.32a24.57,24.57,0,0,1-2.74,10.59,26.05,26.05,0,0,1-8.14,9.7,21.25,21.25,0,0,1-13,4q-13.48,0-19-6.52a27.1,27.1,0,0,1-6.6-14.07q-.43-2.67-.44-26.95V593.55q0-14.22,7.26-20.81t20-6.59q11.4,0,17,7.78T1742,594Zm-35-3.56q1,11.85,9.92,11.85c3.65,0,6.2-1,7.63-3s2.15-4.92,2.15-8.67v-42.5q0-12.45-9.33-12.45c-3.76,0-6.5,1.12-8.22,3.34s-2.6,5.31-2.6,9.25q0,9.48.15,25.26T1707.21,635.76Z"/><path class="cls-8" d="M1836.67,605.83q.86.64.86,7.73,0,6,.21,8.59a26.85,26.85,0,0,0,3.76,10,10.33,10.33,0,0,0,9.55,5.26q7.1,0,9.34-6t2.26-16.75a14.57,14.57,0,0,0-4.83-11.27q-4.83-4.4-14.93-10a123.18,123.18,0,0,1-15-9.24,37.53,37.53,0,0,1-10-11.48q-4.19-7.2-4.19-17.5a29.06,29.06,0,0,1,4.51-15,35.44,35.44,0,0,1,13.1-12.45,39.79,39.79,0,0,1,20.18-4.94,33.7,33.7,0,0,1,18.68,5.26q8.16,5.26,10.63,10.41c1.64,3.44,2.54,5.23,2.68,5.37a6.28,6.28,0,0,1,1.29,2.79c0,.57-.79,1.43-2.36,2.58q-8.6,5.15-13.1,7.51a2.68,2.68,0,0,1-1.93.22c-.86-.14-1.29-.36-1.29-.65a20.7,20.7,0,0,0-5.8-8.37,13,13,0,0,0-8.8-3.65,16.64,16.64,0,0,0-10.3,3.22q-4.31,3.23-4.3,10.31,0,5.35,4.83,9a64,64,0,0,0,12.56,7.09q.86.43,2,1a23,23,0,0,1,2.26,1.19,145.13,145.13,0,0,1,12.13,8.8q5.25,4.29,10.73,12.88a35.58,35.58,0,0,1,5.48,19.54,71.65,71.65,0,0,1-2.69,17.6,43.5,43.5,0,0,1-11,19.11q-8.39,8.8-24.05,8.81a35.89,35.89,0,0,1-18.57-4.62,32.79,32.79,0,0,1-11.92-11.49,27.61,27.61,0,0,1-4.29-13.09q-.21-4.51-.22-13.1v-13.1c0-1.14.18-1.86.54-2.14a3.93,3.93,0,0,1,2.25-.43h8.59Q1835.6,604.76,1836.67,605.83Z"/><rect class="cls-9" x="604.99" y="340.48" width="322" height="332.51" rx="7.38"/><rect class="cls-10" x="628.65" y="340.48" width="298.34" height="332.51" rx="7.1"/><circle class="cls-11" cx="777.82" cy="523.17" r="130.77"/><path class="cls-12" d="M777.82,431.17a92,92,0,0,0-88.71,67.54,8.81,8.81,0,0,0-3-.51h0a8.87,8.87,0,0,0-8.87,8.87v32.2a8.87,8.87,0,0,0,8.87,8.87h0a8.81,8.81,0,0,0,3-.52,92,92,0,1,0,88.71-116.45Z"/><rect class="cls-13" x="695.35" y="516.27" width="164.94" height="14.46" rx="7.23" transform="translate(-142.35 703.33) rotate(-45)"/><rect class="cls-14" x="770.59" y="441.02" width="14.46" height="164.94" rx="7.23" transform="translate(-142.35 703.33) rotate(-45)"/><circle class="cls-15" cx="777.82" cy="523.17" r="38.11"/><circle class="cls-16" cx="777.82" cy="412.77" r="9.2"/><circle class="cls-17" cx="777.82" cy="633.57" r="9.2"/><circle class="cls-18" cx="699.75" cy="445.1" r="9.2"/><circle class="cls-19" cx="855.88" cy="601.23" r="9.2"/><circle class="cls-20" cx="699.75" cy="601.23" r="9.2"/><circle class="cls-21" cx="855.88" cy="445.1" r="9.2"/><circle class="cls-22" cx="888.22" cy="523.17" r="9.2"/><path class="cls-23" d="M1674.11,662.27a35.19,35.19,0,0,1-3.85-.14l-.74.14c-1.19,0-1.78-.93-1.78-2.81V574.6a40.48,40.48,0,0,1,.37-5.26q.23-1,1.56-1a11.85,11.85,0,0,1,1.55.14,17.56,17.56,0,0,0,2.59.15c.3,0,3,.15,8,.45,1.09,0,1.63.64,1.63,1.92q-.3,7.56-.3,58.06v27.84a19.45,19.45,0,0,1-.29,3.93,1.43,1.43,0,0,1-1.48,1.26Z"/><path class="cls-24" d="M1766.08,615.18v44a3.16,3.16,0,0,1-.66,2.37,4.31,4.31,0,0,1-2.45.74,34.45,34.45,0,0,1-3.85.15c-.59,0-1.4.05-2.44.15s-1.9.2-2.59.3a2.82,2.82,0,0,1-2.52-.6,5.24,5.24,0,0,1-1.48-1.92,4.84,4.84,0,0,1-.45-1.33q0-9.33.15-33.62t.15-45.92v-7.4a3.21,3.21,0,0,1,.59-2.15,2.71,2.71,0,0,1,2.08-.67l8.73.15c.2,0,.6,0,1.19.08a4.68,4.68,0,0,1,1.85.59,2.5,2.5,0,0,1,1.26,1.55q3.55,9.48,11.25,28.59t9.78,23.25a12.41,12.41,0,0,0,.3-2.07q0-35.4-.45-48.73c-.1-1.58,0-2.54.3-2.89s1.23-.56,2.81-.66c5.33-.2,8.94-.4,10.81-.6a2.54,2.54,0,0,1,1.93.37,2.65,2.65,0,0,1,.59,2q0,16.89.15,31.25,0,45,.15,55.39a4.25,4.25,0,0,1-1.26,3.26,3.79,3.79,0,0,1-2.59,1.19l-8.59-.15h-1.34a5.05,5.05,0,0,1-2.22-.59,3.93,3.93,0,0,1-1.78-1.78q-1.18-2.52-8.29-19.55t-9.63-23.1l-.88-1.63Z"/><path class="cls-25" d="M1039.94,665.88q-28.4,0-45.9-18t-17.52-44.49l-.47-24.14q-1.42-89.44-1.42-114.06,0-21.3.47-27.45,1-31.69,14.44-64.37t55.61-32.65q40.21,0,54.43,25.08t14.19,57.27q0,8.06-.47,12.54c-.32,3-.47,5.13-.47,6.39a4.37,4.37,0,0,1-1.9,4,8.74,8.74,0,0,1-4.73,1.19h-4.26a116.2,116.2,0,0,1-12.54.23q-5.45-.22-10.17-.23-7.11,0-9.47-7.58,0-1.87-.47-12.78t-4.74-26q-4.26-15.13-18.45-15.14-9.48,0-17,15.38t-7.57,35.73L1021,577.38q0,11.36,5.21,25.79t15.62,14.44q13.25,0,19.4-15.39a107.92,107.92,0,0,0,7.34-33.13q1.17-17.75.23-22-.46-5.69,5.68-5.68l30.29-1.42q9.46-.94,9.47,8.52c0,.94.07,2.6.23,5s.24,5.91.24,10.65q0,37.86-15.14,69.8T1039.94,665.88Z"/><path class="cls-26" d="M1211.93,621.13q0,8.25-4.63,17.88a43.77,43.77,0,0,1-13.75,16.37q-9.12,6.75-21.87,6.75-22.76,0-32.13-11t-11.12-23.75q-.75-4.5-.75-45.5v-38q0-24,12.25-35.12t33.75-11.13q19.24,0,28.62,13.13t9.38,33.87Zm-59-6q1.74,20,16.75,20c6.16,0,10.46-1.71,12.87-5.12s3.63-8.29,3.63-14.63V543.63q0-21-15.75-21-9.51,0-13.88,5.63t-4.37,15.62q0,16,.25,42.63T1152.93,615.13Z"/><path class="cls-27" d="M1256.24,633.74h42c2,0,3.41.37,4.25,1.12s1.25,2,1.25,3.88q0,11.5-.5,16.75a3.32,3.32,0,0,1-1,2.12,4.22,4.22,0,0,1-2,1.38q-2.51.75-41.5.75-24.51,0-26.75-.25c-1.17,0-2.29-.75-3.38-2.25a8.37,8.37,0,0,1-1.62-5q.24-24.5.37-70.25t.13-74.5a5.39,5.39,0,0,1,.87-3.5c.59-.67,1.79-1,3.63-1l13,.25a55.1,55.1,0,0,0,6.25-.25,2.85,2.85,0,0,1,2.5.5,3.88,3.88,0,0,1,.75,2.75q-.51,12.5-.5,73.5l.25,51.25a2.81,2.81,0,0,0,.75,1.87C1255.49,633.45,1255.9,633.74,1256.24,633.74Z"/><path class="cls-28" d="M1349.24,633.74h42c2,0,3.41.37,4.25,1.12s1.25,2,1.25,3.88q0,11.5-.5,16.75a3.32,3.32,0,0,1-1,2.12,4.22,4.22,0,0,1-2,1.38q-2.51.75-41.5.75-24.51,0-26.75-.25c-1.17,0-2.29-.75-3.38-2.25a8.37,8.37,0,0,1-1.62-5q.24-24.5.37-70.25t.13-74.5a5.39,5.39,0,0,1,.87-3.5c.59-.67,1.79-1,3.63-1l13,.25a55.1,55.1,0,0,0,6.25-.25,2.85,2.85,0,0,1,2.5.5,3.88,3.88,0,0,1,.75,2.75q-.51,12.5-.5,73.5l.25,51.25a2.81,2.81,0,0,0,.75,1.87C1348.49,633.45,1348.9,633.74,1349.24,633.74Z"/><path class="cls-29" d="M1487.18,529.88a37.13,37.13,0,0,1-5-.25h-14.25q-13.76,0-17.5-.25h-2c-1.67,0-2.67.29-3,.88a15.47,15.47,0,0,0-1,4.37q-.26,6.51-.25,23.5h12.5q21.49,0,24.75.75c2.16.34,3.25,2.5,3.25,6.5q0,10-1.25,14.75c-.67.84-2,1.42-3.88,1.75a27.13,27.13,0,0,1-3.87.5l-27.75.5c-2.17,0-3.25,1.09-3.25,3.25q-.51,9.51-.5,18,0,10.5.25,18.88c.16,5.58.25,8.62.25,9.12q3.75-.24,42-.25c2.5,0,4.16.29,5,.88a2.75,2.75,0,0,1,1.25,2.37l-.75,20.5a2.42,2.42,0,0,1-1.63,2.25,9.18,9.18,0,0,1-3.87.75l-67.75.25c-1.5,0-2.5-.33-3-1a5,5,0,0,1-.75-3q0-138.24.25-145.5a6.09,6.09,0,0,1,1.62-3.75,4.49,4.49,0,0,1,3.38-2h65.75q7.24,0,7.25,7.25v6.38a45.07,45.07,0,0,1-1,10.12Q1491.43,529.89,1487.18,529.88Z"/><path class="cls-30" d="M1546.74,666.24q-15,0-24.25-9.5t-9.25-23.5l-.25-12.75q-.75-47.25-.75-60.25,0-11.25.25-14.5a96.37,96.37,0,0,1,7.62-34q7.13-17.25,29.38-17.25,21.24,0,28.75,13.25t7.5,30.25c0,2.83-.09,5-.25,6.62s-.25,2.71-.25,3.38a2.31,2.31,0,0,1-1,2.12,4.62,4.62,0,0,1-2.5.63h-2.25a58.55,58.55,0,0,1-6.63.12c-1.91-.08-3.71-.12-5.37-.12q-3.75,0-5-4c0-.67-.09-2.92-.25-6.75a62.26,62.26,0,0,0-2.5-13.75q-2.25-8-9.75-8-5,0-9,8.12a42.21,42.21,0,0,0-4,18.88l-.25,74.25a40.54,40.54,0,0,0,2.75,13.62q2.74,7.64,8.25,7.63,7,0,10.25-8.13a57,57,0,0,0,3.87-17.5q.63-9.37.13-11.62-.26-3,3-3l16-.75q5-.5,5,4.5c0,.5,0,1.37.12,2.62s.13,3.13.13,5.63a85,85,0,0,1-8,36.87Q1570.23,666.24,1546.74,666.24Z"/><path class="cls-31" d="M1598.42,528.38q-1,0-1-14.5c0-1.83,0-3.12-.12-3.87s-.13-1.21-.13-1.38a4.66,4.66,0,0,1,1.88-4.5,7.47,7.47,0,0,1,4.37-1.5h77a23.37,23.37,0,0,1,5.75.5,2.17,2.17,0,0,1,1.75,2.25l-.25,20.75a2.18,2.18,0,0,1-1.87,2.25,30.81,30.81,0,0,1-6.88.5h-20.75a1.89,1.89,0,0,0-1.12.5,1.54,1.54,0,0,0-.63,1.25V651.88q0,4.75-1.62,6.13c-1.09.91-3.38,1.46-6.88,1.62q-3.75.24-13,.25c-1.83,0-3.12-.46-3.87-1.37s-1.13-2.46-1.13-4.63q0-31-.25-59-.5-58.5-.25-63.75c0-2-.83-3-2.5-3h-1.25q-6,.51-13.5.5Z"/><path class="cls-32" d="M1684.11,662.27a35.19,35.19,0,0,1-3.85-.14l-.74.14c-1.19,0-1.78-.93-1.78-2.81V574.6a40.48,40.48,0,0,1,.37-5.26q.23-1,1.56-1a11.85,11.85,0,0,1,1.55.14,17.56,17.56,0,0,0,2.59.15c.3,0,3,.15,8,.45,1.09,0,1.63.64,1.63,1.92q-.3,7.56-.3,58.06v27.84a19.45,19.45,0,0,1-.29,3.93,1.43,1.43,0,0,1-1.48,1.26Z"/><path class="cls-33" d="M1752.16,639.32a24.57,24.57,0,0,1-2.74,10.59,26.05,26.05,0,0,1-8.14,9.7,21.25,21.25,0,0,1-13,4q-13.48,0-19-6.52a27.1,27.1,0,0,1-6.6-14.07q-.43-2.67-.44-26.95V593.55q0-14.22,7.26-20.81t20-6.59q11.4,0,17,7.78T1752,594Zm-35-3.56q1,11.85,9.92,11.85c3.65,0,6.2-1,7.63-3s2.15-4.92,2.15-8.67v-42.5q0-12.45-9.33-12.45c-3.76,0-6.5,1.12-8.22,3.34s-2.6,5.31-2.6,9.25q0,9.48.15,25.26T1717.21,635.76Z"/><path class="cls-34" d="M1776.08,615.18v44a3.16,3.16,0,0,1-.66,2.37,4.31,4.31,0,0,1-2.45.74,34.45,34.45,0,0,1-3.85.15c-.59,0-1.4.05-2.44.15s-1.9.2-2.59.3a2.82,2.82,0,0,1-2.52-.6,5.24,5.24,0,0,1-1.48-1.92,4.84,4.84,0,0,1-.45-1.33q0-9.33.15-33.62t.15-45.92v-7.4a3.21,3.21,0,0,1,.59-2.15,2.71,2.71,0,0,1,2.08-.67l8.73.15c.2,0,.6,0,1.19.08a4.68,4.68,0,0,1,1.85.59,2.5,2.5,0,0,1,1.26,1.55q3.55,9.48,11.25,28.59t9.78,23.25a12.41,12.41,0,0,0,.3-2.07q0-35.4-.45-48.73c-.1-1.58,0-2.54.3-2.89s1.23-.56,2.81-.66c5.33-.2,8.94-.4,10.81-.6a2.54,2.54,0,0,1,1.93.37,2.65,2.65,0,0,1,.59,2q0,16.89.15,31.25,0,45,.15,55.39a4.25,4.25,0,0,1-1.26,3.26,3.79,3.79,0,0,1-2.59,1.19l-8.59-.15h-1.34a5.05,5.05,0,0,1-2.22-.59,3.93,3.93,0,0,1-1.78-1.78q-1.18-2.52-8.29-19.55t-9.63-23.1l-.88-1.63Z"/><path class="cls-35" d="M1846.67,605.83q.86.64.86,7.73,0,6,.21,8.59a26.85,26.85,0,0,0,3.76,10,10.33,10.33,0,0,0,9.55,5.26q7.1,0,9.34-6t2.26-16.75a14.57,14.57,0,0,0-4.83-11.27q-4.83-4.4-14.93-10a123.18,123.18,0,0,1-15-9.24,37.53,37.53,0,0,1-10-11.48q-4.19-7.2-4.19-17.5a29.06,29.06,0,0,1,4.51-15,35.44,35.44,0,0,1,13.1-12.45,39.79,39.79,0,0,1,20.18-4.94,33.7,33.7,0,0,1,18.68,5.26q8.16,5.26,10.63,10.41c1.64,3.44,2.54,5.23,2.68,5.37a6.28,6.28,0,0,1,1.29,2.79c0,.57-.79,1.43-2.36,2.58q-8.6,5.15-13.1,7.51a2.68,2.68,0,0,1-1.93.22c-.86-.14-1.29-.36-1.29-.65a20.7,20.7,0,0,0-5.8-8.37,13,13,0,0,0-8.8-3.65,16.64,16.64,0,0,0-10.3,3.22q-4.31,3.23-4.3,10.31,0,5.35,4.83,9a64,64,0,0,0,12.56,7.09q.86.43,2,1a23,23,0,0,1,2.26,1.19,145.13,145.13,0,0,1,12.13,8.8q5.25,4.29,10.73,12.88a35.58,35.58,0,0,1,5.48,19.54,71.65,71.65,0,0,1-2.69,17.6,43.5,43.5,0,0,1-11,19.11q-8.39,8.8-24.05,8.81a35.89,35.89,0,0,1-18.57-4.62,32.79,32.79,0,0,1-11.92-11.49,27.61,27.61,0,0,1-4.29-13.09q-.21-4.51-.22-13.1v-13.1c0-1.14.18-1.86.54-2.14a3.93,3.93,0,0,1,2.25-.43h8.59Q1845.6,604.76,1846.67,605.83Z"/><rect class="cls-36" x="614.99" y="697.74" width="1272" height="23" rx="11.5"/><path class="cls-37" d="M1408.44,245.66l-48.1-12.89A58.87,58.87,0,0,0,1303.47,248l-35.21,35.21A58.89,58.89,0,0,0,1253,340.09l12.89,48.1a58.88,58.88,0,0,0,41.63,41.63l48.1,12.89a58.89,58.89,0,0,0,56.87-15.24l35.21-35.21A58.9,58.9,0,0,0,1463,335.39l-12.89-48.1A58.85,58.85,0,0,0,1408.44,245.66Z"/><path class="cls-38" d="M774.64,231.88l-12.46,4.68a15.75,15.75,0,0,0-10,12.15L750,261.84a15.74,15.74,0,0,0,5.53,14.73L765.82,285a15.72,15.72,0,0,0,15.52,2.57l12.46-4.67a15.74,15.74,0,0,0,10-12.16L806,257.64a15.74,15.74,0,0,0-5.53-14.73l-10.28-8.45A15.75,15.75,0,0,0,774.64,231.88Z"/><path class="cls-39" d="M2052.94,623.69l-5.76-21.52a26.36,26.36,0,0,0-18.62-18.62L2007,577.79a26.33,26.33,0,0,0-25.44,6.81l-15.75,15.75a26.33,26.33,0,0,0-6.81,25.44l5.76,21.51a26.37,26.37,0,0,0,18.62,18.63l21.52,5.76a26.32,26.32,0,0,0,25.44-6.82l15.75-15.75A26.31,26.31,0,0,0,2052.94,623.69Z"/><path class="cls-40" d="M1790.21,508.42l-4.5-7.8a10.65,10.65,0,0,0-9.22-5.32h-9a10.65,10.65,0,0,0-9.22,5.32l-4.5,7.8a10.64,10.64,0,0,0,0,10.64l4.5,7.8a10.65,10.65,0,0,0,9.22,5.32h9a10.65,10.65,0,0,0,9.22-5.32l4.5-7.8A10.64,10.64,0,0,0,1790.21,508.42Z"/><path class="cls-41" d="M504.6,651.21l12.61-7.28A17.21,17.21,0,0,0,525.82,629V614.46a17.21,17.21,0,0,0-8.61-14.91l-12.61-7.29a17.25,17.25,0,0,0-17.22,0l-12.61,7.29a17.21,17.21,0,0,0-8.61,14.91V629a17.21,17.21,0,0,0,8.61,14.91l12.61,7.28A17.2,17.2,0,0,0,504.6,651.21Z"/><text class="cls-42" transform="translate(585.04 831.02)">A wonderful modern c library</text></svg>